Coordinates
version=1
nRows=9
nColumns=63
inDegrees=yes

Units are S.I. units (second, meters, Newtons, ...)
If the header above contains a line with 'inDegrees', this indicates whether rotational values are in degrees (yes) or radians (no).

endheader
time	pelvis_tilt	pelvis_list	pelvis_rotation	pelvis_tx	pelvis_ty	pelvis_tz	hip_flexion_r	hip_adduction_r	hip_rotation_r	knee_angle_r	knee_angle_r_beta	ankle_angle_r	subtalar_angle_r	mtp_angle_r	hip_flexion_l	hip_adduction_l	hip_rotation_l	knee_angle_l	knee_angle_l_beta	ankle_angle_l	subtalar_angle_l	mtp_angle_l	L5_S1_Flex_Ext	L5_S1_Lat_Bending	L5_S1_axial_rotation	L4_L5_Flex_Ext	L4_L5_Lat_Bending	L4_L5_axial_rotation	L3_L4_Flex_Ext	L3_L4_Lat_Bending	L3_L4_axial_rotation	L2_L3_Flex_Ext	L2_L3_Lat_Bending	L2_L3_axial_rotation	L1_L2_Flex_Ext	L1_L2_Lat_Bending	L1_L2_axial_rotation	L1_T12_Flex_Ext	L1_T12_Lat_Bending	L1_T12_axial_rotation	Abs_r3	Abs_r2	Abs_r1	Abs_t1	Abs_t2	neck_flexion	neck_bending	neck_rotation	arm_flex_r	arm_add_r	arm_rot_r	elbow_flex_r	pro_sup_r	wrist_flex_r	wrist_dev_r	arm_flex_l	arm_add_l	arm_rot_l	elbow_flex_l	pro_sup_l	wrist_flex_l	wrist_dev_l
1.600000	-0.395122	-11.312702	108.550396	0.263256	0.709217	0.840811	7.022145	3.630007	-16.287616	3.924601	0.068497	9.782894	-12.526852	0.000000	10.425210	-2.446329	4.991231	3.867083	0.067493	24.692362	10.921936	0.000000	-0.178516	-0.229893	0.641747	-0.331522	-0.305757	0.681856	-0.293283	-0.558961	0.681856	-0.204026	-0.558961	0.561529	-0.165770	-0.468797	0.521419	-0.102004	-0.356104	0.481310	-1.275120	-2.600592	3.569205	0.000000	0.000000	7.770962	1.310706	-14.054356	23.142170	-18.582819	-6.163244	110.995950	76.027685	-2.902012	16.183758	10.887396	-13.548866	13.024508	126.162017	88.882560	-10.507015	2.734231
1.616667	-0.305988	-11.294432	108.718418	0.262548	0.708997	0.840908	7.105625	3.631756	-16.845194	4.151354	0.072455	9.990758	-11.905802	0.000000	10.477155	-2.494637	5.118496	3.953459	0.069001	24.708135	10.869258	0.000000	-0.181058	-0.212176	0.601783	-0.336243	-0.282194	0.639394	-0.297460	-0.515884	0.639394	-0.206931	-0.515884	0.526560	-0.168131	-0.432669	0.488949	-0.103457	-0.328660	0.451337	-1.293280	-2.400176	3.346935	0.000000	0.000000	7.458071	1.530659	-13.822505	23.435954	-18.881724	-5.038073	110.817683	75.699479	-2.432740	16.706014	9.907548	-13.542669	12.562004	126.876049	88.765509	-10.207221	4.881142
1.633333	-0.215045	-11.263238	108.890040	0.261812	0.708793	0.840896	7.154431	3.649181	-17.241398	4.335569	0.075670	10.143582	-11.444480	0.000000	10.504751	-2.545293	5.209124	4.021932	0.070196	24.782332	10.899959	0.000000	-0.183192	-0.193105	0.560368	-0.340206	-0.256830	0.595391	-0.300966	-0.469517	0.595391	-0.209370	-0.469517	0.490322	-0.170112	-0.393781	0.455299	-0.104676	-0.299120	0.420276	-1.308524	-2.184447	3.116600	0.000000	0.000000	7.094992	1.838408	-13.579457	23.501969	-19.221322	-3.852144	110.814922	75.692600	-2.222331	16.983780	8.839085	-13.578728	12.103533	127.694131	88.626776	-9.943859	7.186469
1.650000	-0.127405	-11.234369	109.085990	0.261041	0.708593	0.840799	7.186062	3.669924	-17.555523	4.481419	0.078216	10.273324	-11.066595	0.000000	10.528228	-2.584698	5.344560	4.073422	0.071095	24.894947	10.943972	0.000000	-0.183738	-0.174255	0.518208	-0.341220	-0.231759	0.550596	-0.301864	-0.423683	0.550596	-0.209994	-0.423683	0.453432	-0.170619	-0.355340	0.421044	-0.104988	-0.269921	0.388656	-1.312424	-1.971205	2.882118	0.000000	0.000000	6.698071	2.173810	-13.392550	23.352089	-19.582938	-2.662023	110.974803	76.029626	-2.302976	17.026818	7.716313	-13.658025	11.669326	128.611841	88.477808	-9.685489	9.674195
1.666667	-0.051936	-11.214138	109.298559	0.260284	0.708383	0.840620	7.203674	3.690698	-17.719191	4.582020	0.079971	10.341275	-10.889234	0.000000	10.545662	-2.602613	5.569572	4.096892	0.071504	25.027306	10.932397	0.000000	-0.182898	-0.157567	0.479884	-0.339660	-0.209564	0.509877	-0.300483	-0.383109	0.509877	-0.209034	-0.383109	0.419899	-0.169839	-0.321311	0.389906	-0.104508	-0.244072	0.359913	-1.306422	-1.782432	2.668973	0.000000	0.000000	6.306323	2.500667	-13.308372	23.014935	-19.937955	-1.531986	111.267035	76.666360	-2.612070	16.869739	6.596424	-13.788877	11.289168	129.608022	88.333037	-9.453367	12.345695
1.683333	0.012438	-11.206514	109.544876	0.259526	0.708167	0.840398	7.217630	3.699275	-17.866661	4.657720	0.081293	10.387788	-10.740867	0.000000	10.575400	-2.598116	5.801716	4.110999	0.071750	25.166109	10.991794	0.000000	-0.179999	-0.142827	0.447671	-0.334276	-0.189960	0.475651	-0.295720	-0.347269	0.475651	-0.205721	-0.347269	0.391712	-0.167147	-0.291253	0.363733	-0.102851	-0.221239	0.335753	-1.285713	-1.615687	2.489812	0.000000	0.000000	5.945004	2.784687	-13.324066	22.517193	-20.269981	-0.545388	111.664158	77.537668	-3.051979	16.597742	5.538482	-13.956961	10.986888	130.611756	88.206943	-9.209835	15.069785
1.700000	0.061686	-11.212789	109.826433	0.258785	0.707896	0.840144	7.232845	3.695900	-17.976004	4.716761	0.082323	10.428531	-10.711548	0.000000	10.623333	-2.570115	5.989738	4.126870	0.072027	25.349285	11.193609	0.000000	-0.176132	-0.131176	0.425003	-0.327095	-0.174465	0.451566	-0.289368	-0.318942	0.451566	-0.201302	-0.318942	0.371878	-0.163556	-0.267495	0.345315	-0.100642	-0.203192	0.318753	-1.258095	-1.483895	2.363742	0.000000	0.000000	5.661967	2.952629	-13.548884	21.870349	-20.556026	0.240537	112.177284	78.534615	-3.667741	16.298034	4.619094	-14.133054	10.765187	131.639839	88.112754	-8.975776	18.083373
1.716667	0.103903	-11.230668	110.134435	0.258076	0.707579	0.839859	7.240484	3.691294	-18.055270	4.745614	0.082827	10.441975	-10.776519	0.000000	10.679023	-2.529162	6.197586	4.127231	0.072034	25.540242	11.439654	0.000000	-0.169531	-0.121207	0.412120	-0.314835	-0.161205	0.437878	-0.278522	-0.294702	0.437878	-0.193757	-0.294702	0.360605	-0.157426	-0.247165	0.334848	-0.096870	-0.187749	0.309090	-1.210940	-1.371114	2.292088	0.000000	0.000000	5.451267	3.058606	-13.884882	21.115037	-20.789632	0.805969	112.738372	79.691110	-4.381771	15.920446	3.844895	-14.307452	10.602545	132.593430	88.055549	-8.727341	20.977252
1.733333	0.133277	-11.244685	110.495296	0.257367	0.707230	0.839629	7.249934	3.672744	-18.189727	4.799614	0.083769	10.458809	-10.916280	0.000000	10.752864	-2.469146	6.402642	4.157967	0.072570	25.757175	11.767815	0.000000	-0.164484	-0.112526	0.394654	-0.305464	-0.149659	0.419320	-0.270231	-0.273595	0.419320	-0.187989	-0.273595	0.345322	-0.152740	-0.229462	0.320657	-0.093986	-0.174302	0.295991	-1.174895	-1.272912	2.194948	0.000000	0.000000	5.343042	3.099574	-14.290744	20.341510	-20.948898	1.156734	113.315732	80.764844	-5.038626	15.660985	3.199061	-14.483009	10.388532	133.495692	88.039885	-8.376440	23.699740
